<svg xmlns="http://www.w3.org/2000/svg" viewBox="0 0 168 168.5"><defs><style>.a{fill:#ff8bbe;}.b{fill:#ed2e82;}.c{fill:#f4f4f4;}.d{fill:none;stroke:#edd2de;}</style></defs><g transform="translate(-186 -4963.5)"><circle class="a" cx="84" cy="84" r="84" transform="translate(186 4964)"/><path class="b" d="M105.661,218.628a84.624,84.624,0,0,1-16.929-1.707A83.54,83.54,0,0,1,58.7,204.282a84.246,84.246,0,0,1-30.434-36.958,83.577,83.577,0,0,1-4.895-15.768,84.715,84.715,0,0,1,.928-37.88,83.566,83.566,0,0,1,7.464-19.014l73.9,41.154V50.628a84.618,84.618,0,0,1,16.929,1.707,83.541,83.541,0,0,1,30.036,12.639,84.245,84.245,0,0,1,30.434,36.957,83.577,83.577,0,0,1,4.895,15.768,84.82,84.82,0,0,1,0,33.858,83.542,83.542,0,0,1-12.639,30.036,84.245,84.245,0,0,1-36.957,30.434,83.576,83.576,0,0,1-15.768,4.895A84.622,84.622,0,0,1,105.661,218.628Z" transform="translate(164.339 4913.372)"/><circle class="c" cx="35" cy="35" r="35" transform="translate(235 5013)"/><line class="d" y2="49" transform="translate(269.5 4963.5)"/></g></svg>